<mxfile host="app.diagrams.net" agent="Mozilla/5.0 (Windows NT 10.0; Win64; x64) AppleWebKit/537.36 (KHTML, like Gecko) Chrome/131.0.0.0 Safari/537.36" version="25.0.3">
  <diagram name="Trang-1" id="U55i69u3SEo8OkQwpdKD">
    <mxGraphModel dx="1615" dy="857" grid="1" gridSize="10" guides="1" tooltips="1" connect="1" arrows="1" fold="1" page="1" pageScale="1" pageWidth="2339" pageHeight="3300" math="0" shadow="0">
      <root>
        <mxCell id="0" />
        <mxCell id="1" parent="0" />
        <mxCell id="pcqIPcmbaqrJUMRT5sf_-56" value="" style="endArrow=none;html=1;rounded=0;entryX=0;entryY=0.5;entryDx=0;entryDy=0;" edge="1" parent="1" target="pcqIPcmbaqrJUMRT5sf_-207">
          <mxGeometry width="50" height="50" relative="1" as="geometry">
            <mxPoint x="760" y="600" as="sourcePoint" />
            <mxPoint x="1040" y="380" as="targetPoint" />
            <Array as="points">
              <mxPoint x="760" y="370" />
            </Array>
          </mxGeometry>
        </mxCell>
        <mxCell id="pcqIPcmbaqrJUMRT5sf_-58" value="" style="endArrow=none;html=1;rounded=0;exitX=0.5;exitY=1;exitDx=0;exitDy=0;entryX=0;entryY=0.5;entryDx=0;entryDy=0;" edge="1" parent="1" source="pcqIPcmbaqrJUMRT5sf_-91" target="pcqIPcmbaqrJUMRT5sf_-223">
          <mxGeometry width="50" height="50" relative="1" as="geometry">
            <mxPoint x="760" y="800" as="sourcePoint" />
            <mxPoint x="1040" y="1020" as="targetPoint" />
            <Array as="points">
              <mxPoint x="760" y="1080" />
            </Array>
          </mxGeometry>
        </mxCell>
        <mxCell id="pcqIPcmbaqrJUMRT5sf_-68" value="" style="endArrow=none;html=1;rounded=0;exitX=1;exitY=0.5;exitDx=0;exitDy=0;entryX=0.513;entryY=-0.108;entryDx=0;entryDy=0;entryPerimeter=0;" edge="1" parent="1" source="pcqIPcmbaqrJUMRT5sf_-207" target="pcqIPcmbaqrJUMRT5sf_-165">
          <mxGeometry width="50" height="50" relative="1" as="geometry">
            <mxPoint x="1360" y="380" as="sourcePoint" />
            <mxPoint x="1640" y="600" as="targetPoint" />
            <Array as="points">
              <mxPoint x="1640" y="370" />
            </Array>
          </mxGeometry>
        </mxCell>
        <mxCell id="pcqIPcmbaqrJUMRT5sf_-70" value="" style="endArrow=none;html=1;rounded=0;exitX=1;exitY=0.5;exitDx=0;exitDy=0;entryX=0.5;entryY=1;entryDx=0;entryDy=0;" edge="1" parent="1" source="pcqIPcmbaqrJUMRT5sf_-223" target="pcqIPcmbaqrJUMRT5sf_-163">
          <mxGeometry width="50" height="50" relative="1" as="geometry">
            <mxPoint x="1360" y="1020.0000000000002" as="sourcePoint" />
            <mxPoint x="1640" y="810" as="targetPoint" />
            <Array as="points">
              <mxPoint x="1640" y="1080" />
            </Array>
          </mxGeometry>
        </mxCell>
        <mxCell id="pcqIPcmbaqrJUMRT5sf_-80" value="" style="endArrow=none;html=1;rounded=0;exitX=1;exitY=0.5;exitDx=0;exitDy=0;entryX=0;entryY=0.5;entryDx=0;entryDy=0;" edge="1" parent="1" source="pcqIPcmbaqrJUMRT5sf_-179" target="pcqIPcmbaqrJUMRT5sf_-91">
          <mxGeometry width="50" height="50" relative="1" as="geometry">
            <mxPoint x="480" y="710" as="sourcePoint" />
            <mxPoint x="600" y="710" as="targetPoint" />
          </mxGeometry>
        </mxCell>
        <mxCell id="pcqIPcmbaqrJUMRT5sf_-91" value="" style="html=1;whiteSpace=wrap;fillColor=#f9df90;strokeColor=#d6b656;" vertex="1" parent="1">
          <mxGeometry x="600" y="600" width="320" height="260" as="geometry" />
        </mxCell>
        <mxCell id="pcqIPcmbaqrJUMRT5sf_-93" value="&amp;lt;&amp;lt;device&amp;gt;&amp;gt;&lt;div&gt;Web Server&lt;/div&gt;" style="text;html=1;align=center;verticalAlign=middle;resizable=0;points=[];autosize=1;strokeColor=none;fillColor=none;" vertex="1" parent="1">
          <mxGeometry x="715" y="600" width="90" height="40" as="geometry" />
        </mxCell>
        <mxCell id="pcqIPcmbaqrJUMRT5sf_-94" value="" style="endArrow=none;html=1;rounded=0;entryX=1;entryY=0;entryDx=0;entryDy=0;" edge="1" parent="1">
          <mxGeometry width="50" height="50" relative="1" as="geometry">
            <mxPoint x="910" y="630" as="sourcePoint" />
            <mxPoint x="910" y="610" as="targetPoint" />
            <Array as="points" />
          </mxGeometry>
        </mxCell>
        <mxCell id="pcqIPcmbaqrJUMRT5sf_-95" value="" style="endArrow=none;html=1;rounded=0;exitX=1;exitY=1;exitDx=0;exitDy=0;" edge="1" parent="1">
          <mxGeometry width="50" height="50" relative="1" as="geometry">
            <mxPoint x="900" y="640" as="sourcePoint" />
            <mxPoint x="910" y="630" as="targetPoint" />
          </mxGeometry>
        </mxCell>
        <mxCell id="pcqIPcmbaqrJUMRT5sf_-96" value="" style="endArrow=none;html=1;rounded=0;exitX=1;exitY=1;exitDx=0;exitDy=0;" edge="1" parent="1">
          <mxGeometry width="50" height="50" relative="1" as="geometry">
            <mxPoint x="900" y="620" as="sourcePoint" />
            <mxPoint x="910" y="610" as="targetPoint" />
          </mxGeometry>
        </mxCell>
        <mxCell id="pcqIPcmbaqrJUMRT5sf_-97" value="" style="endArrow=none;html=1;rounded=0;" edge="1" parent="1">
          <mxGeometry width="50" height="50" relative="1" as="geometry">
            <mxPoint x="880" y="610" as="sourcePoint" />
            <mxPoint x="910" y="610" as="targetPoint" />
            <Array as="points" />
          </mxGeometry>
        </mxCell>
        <mxCell id="pcqIPcmbaqrJUMRT5sf_-98" value="" style="endArrow=none;html=1;rounded=0;entryX=0;entryY=0;entryDx=0;entryDy=0;" edge="1" parent="1">
          <mxGeometry width="50" height="50" relative="1" as="geometry">
            <mxPoint x="880" y="610" as="sourcePoint" />
            <mxPoint x="870" y="620" as="targetPoint" />
            <Array as="points" />
          </mxGeometry>
        </mxCell>
        <mxCell id="pcqIPcmbaqrJUMRT5sf_-99" value="" style="endArrow=none;html=1;rounded=0;" edge="1" parent="1">
          <mxGeometry width="50" height="50" relative="1" as="geometry">
            <mxPoint x="870" y="620" as="sourcePoint" />
            <mxPoint x="900" y="620" as="targetPoint" />
          </mxGeometry>
        </mxCell>
        <mxCell id="pcqIPcmbaqrJUMRT5sf_-100" value="" style="endArrow=none;html=1;rounded=0;" edge="1" parent="1">
          <mxGeometry width="50" height="50" relative="1" as="geometry">
            <mxPoint x="870" y="640" as="sourcePoint" />
            <mxPoint x="900" y="640" as="targetPoint" />
          </mxGeometry>
        </mxCell>
        <mxCell id="pcqIPcmbaqrJUMRT5sf_-101" value="" style="endArrow=none;html=1;rounded=0;" edge="1" parent="1">
          <mxGeometry width="50" height="50" relative="1" as="geometry">
            <mxPoint x="900" y="640" as="sourcePoint" />
            <mxPoint x="900" y="620" as="targetPoint" />
          </mxGeometry>
        </mxCell>
        <mxCell id="pcqIPcmbaqrJUMRT5sf_-102" value="" style="endArrow=none;html=1;rounded=0;" edge="1" parent="1">
          <mxGeometry width="50" height="50" relative="1" as="geometry">
            <mxPoint x="870" y="620" as="sourcePoint" />
            <mxPoint x="870" y="640" as="targetPoint" />
          </mxGeometry>
        </mxCell>
        <mxCell id="pcqIPcmbaqrJUMRT5sf_-163" value="" style="html=1;whiteSpace=wrap;fillColor=#f9df90;strokeColor=#d6b656;" vertex="1" parent="1">
          <mxGeometry x="1480" y="640" width="320" height="200" as="geometry" />
        </mxCell>
        <mxCell id="pcqIPcmbaqrJUMRT5sf_-164" value="&amp;lt;&amp;lt;artifact&amp;gt;&amp;gt;&lt;div&gt;Database&lt;/div&gt;" style="rounded=0;whiteSpace=wrap;html=1;fillColor=#b4e8b0;strokeColor=#82b366;" vertex="1" parent="1">
          <mxGeometry x="1580" y="720" width="120" height="60" as="geometry" />
        </mxCell>
        <mxCell id="pcqIPcmbaqrJUMRT5sf_-165" value="&amp;lt;&amp;lt;device&amp;gt;&amp;gt;&lt;div&gt;&amp;nbsp;Database Server&lt;/div&gt;" style="text;html=1;align=center;verticalAlign=middle;resizable=0;points=[];autosize=1;strokeColor=none;fillColor=none;" vertex="1" parent="1">
          <mxGeometry x="1580" y="640" width="120" height="40" as="geometry" />
        </mxCell>
        <mxCell id="pcqIPcmbaqrJUMRT5sf_-166" value="" style="endArrow=none;html=1;rounded=0;entryX=1;entryY=0;entryDx=0;entryDy=0;" edge="1" parent="1">
          <mxGeometry width="50" height="50" relative="1" as="geometry">
            <mxPoint x="1790" y="670" as="sourcePoint" />
            <mxPoint x="1790" y="650" as="targetPoint" />
            <Array as="points" />
          </mxGeometry>
        </mxCell>
        <mxCell id="pcqIPcmbaqrJUMRT5sf_-167" value="" style="endArrow=none;html=1;rounded=0;exitX=1;exitY=1;exitDx=0;exitDy=0;" edge="1" parent="1">
          <mxGeometry width="50" height="50" relative="1" as="geometry">
            <mxPoint x="1780" y="680" as="sourcePoint" />
            <mxPoint x="1790" y="670" as="targetPoint" />
          </mxGeometry>
        </mxCell>
        <mxCell id="pcqIPcmbaqrJUMRT5sf_-168" value="" style="endArrow=none;html=1;rounded=0;exitX=1;exitY=1;exitDx=0;exitDy=0;" edge="1" parent="1">
          <mxGeometry width="50" height="50" relative="1" as="geometry">
            <mxPoint x="1780" y="660" as="sourcePoint" />
            <mxPoint x="1790" y="650" as="targetPoint" />
          </mxGeometry>
        </mxCell>
        <mxCell id="pcqIPcmbaqrJUMRT5sf_-169" value="" style="endArrow=none;html=1;rounded=0;" edge="1" parent="1">
          <mxGeometry width="50" height="50" relative="1" as="geometry">
            <mxPoint x="1760" y="650" as="sourcePoint" />
            <mxPoint x="1790" y="650" as="targetPoint" />
            <Array as="points" />
          </mxGeometry>
        </mxCell>
        <mxCell id="pcqIPcmbaqrJUMRT5sf_-170" value="" style="endArrow=none;html=1;rounded=0;entryX=0;entryY=0;entryDx=0;entryDy=0;" edge="1" parent="1">
          <mxGeometry width="50" height="50" relative="1" as="geometry">
            <mxPoint x="1760" y="650" as="sourcePoint" />
            <mxPoint x="1750" y="660" as="targetPoint" />
            <Array as="points" />
          </mxGeometry>
        </mxCell>
        <mxCell id="pcqIPcmbaqrJUMRT5sf_-171" value="" style="endArrow=none;html=1;rounded=0;" edge="1" parent="1">
          <mxGeometry width="50" height="50" relative="1" as="geometry">
            <mxPoint x="1750" y="660" as="sourcePoint" />
            <mxPoint x="1780" y="660" as="targetPoint" />
          </mxGeometry>
        </mxCell>
        <mxCell id="pcqIPcmbaqrJUMRT5sf_-172" value="" style="endArrow=none;html=1;rounded=0;" edge="1" parent="1">
          <mxGeometry width="50" height="50" relative="1" as="geometry">
            <mxPoint x="1750" y="680" as="sourcePoint" />
            <mxPoint x="1780" y="680" as="targetPoint" />
          </mxGeometry>
        </mxCell>
        <mxCell id="pcqIPcmbaqrJUMRT5sf_-173" value="" style="endArrow=none;html=1;rounded=0;" edge="1" parent="1">
          <mxGeometry width="50" height="50" relative="1" as="geometry">
            <mxPoint x="1780" y="680" as="sourcePoint" />
            <mxPoint x="1780" y="660" as="targetPoint" />
          </mxGeometry>
        </mxCell>
        <mxCell id="pcqIPcmbaqrJUMRT5sf_-174" value="" style="endArrow=none;html=1;rounded=0;" edge="1" parent="1">
          <mxGeometry width="50" height="50" relative="1" as="geometry">
            <mxPoint x="1750" y="660" as="sourcePoint" />
            <mxPoint x="1750" y="680" as="targetPoint" />
          </mxGeometry>
        </mxCell>
        <mxCell id="pcqIPcmbaqrJUMRT5sf_-176" value="" style="verticalAlign=top;align=left;spacingTop=8;spacingLeft=2;spacingRight=12;shape=cube;size=10;direction=south;fontStyle=4;html=1;whiteSpace=wrap;fillColor=#f7dbd9;strokeColor=#b85450;" vertex="1" parent="1">
          <mxGeometry x="665" y="680" width="190" height="150" as="geometry" />
        </mxCell>
        <mxCell id="pcqIPcmbaqrJUMRT5sf_-177" value="&amp;lt;&amp;lt;device&amp;gt;&amp;gt;&lt;div&gt;Web Browser&lt;/div&gt;" style="text;html=1;align=center;verticalAlign=middle;resizable=0;points=[];autosize=1;strokeColor=none;fillColor=none;" vertex="1" parent="1">
          <mxGeometry x="715" y="690" width="100" height="40" as="geometry" />
        </mxCell>
        <mxCell id="pcqIPcmbaqrJUMRT5sf_-178" value="&amp;lt;&amp;lt;artifact&amp;gt;&amp;gt;&lt;div&gt;product_list.php&lt;/div&gt;&lt;div&gt;Danh sách sản phẩm&lt;/div&gt;" style="rounded=0;whiteSpace=wrap;html=1;fillColor=#caf9c8;strokeColor=#82b366;" vertex="1" parent="1">
          <mxGeometry x="705" y="740" width="120" height="60" as="geometry" />
        </mxCell>
        <mxCell id="pcqIPcmbaqrJUMRT5sf_-179" value="" style="html=1;whiteSpace=wrap;fillColor=#f9df90;strokeColor=#d6b656;" vertex="1" parent="1">
          <mxGeometry x="160" y="600" width="320" height="260" as="geometry" />
        </mxCell>
        <mxCell id="pcqIPcmbaqrJUMRT5sf_-180" value="&amp;lt;&amp;lt;device&amp;gt;&amp;gt;&lt;div&gt;Web Server&lt;/div&gt;" style="text;html=1;align=center;verticalAlign=middle;resizable=0;points=[];autosize=1;strokeColor=none;fillColor=none;" vertex="1" parent="1">
          <mxGeometry x="275" y="600" width="90" height="40" as="geometry" />
        </mxCell>
        <mxCell id="pcqIPcmbaqrJUMRT5sf_-181" value="" style="endArrow=none;html=1;rounded=0;entryX=1;entryY=0;entryDx=0;entryDy=0;" edge="1" parent="1">
          <mxGeometry width="50" height="50" relative="1" as="geometry">
            <mxPoint x="470" y="630" as="sourcePoint" />
            <mxPoint x="470" y="610" as="targetPoint" />
            <Array as="points" />
          </mxGeometry>
        </mxCell>
        <mxCell id="pcqIPcmbaqrJUMRT5sf_-182" value="" style="endArrow=none;html=1;rounded=0;exitX=1;exitY=1;exitDx=0;exitDy=0;" edge="1" parent="1">
          <mxGeometry width="50" height="50" relative="1" as="geometry">
            <mxPoint x="460" y="640" as="sourcePoint" />
            <mxPoint x="470" y="630" as="targetPoint" />
          </mxGeometry>
        </mxCell>
        <mxCell id="pcqIPcmbaqrJUMRT5sf_-183" value="" style="endArrow=none;html=1;rounded=0;exitX=1;exitY=1;exitDx=0;exitDy=0;" edge="1" parent="1">
          <mxGeometry width="50" height="50" relative="1" as="geometry">
            <mxPoint x="460" y="620" as="sourcePoint" />
            <mxPoint x="470" y="610" as="targetPoint" />
          </mxGeometry>
        </mxCell>
        <mxCell id="pcqIPcmbaqrJUMRT5sf_-184" value="" style="endArrow=none;html=1;rounded=0;" edge="1" parent="1">
          <mxGeometry width="50" height="50" relative="1" as="geometry">
            <mxPoint x="440" y="610" as="sourcePoint" />
            <mxPoint x="470" y="610" as="targetPoint" />
            <Array as="points" />
          </mxGeometry>
        </mxCell>
        <mxCell id="pcqIPcmbaqrJUMRT5sf_-185" value="" style="endArrow=none;html=1;rounded=0;entryX=0;entryY=0;entryDx=0;entryDy=0;" edge="1" parent="1">
          <mxGeometry width="50" height="50" relative="1" as="geometry">
            <mxPoint x="440" y="610" as="sourcePoint" />
            <mxPoint x="430" y="620" as="targetPoint" />
            <Array as="points" />
          </mxGeometry>
        </mxCell>
        <mxCell id="pcqIPcmbaqrJUMRT5sf_-186" value="" style="endArrow=none;html=1;rounded=0;" edge="1" parent="1">
          <mxGeometry width="50" height="50" relative="1" as="geometry">
            <mxPoint x="430" y="620" as="sourcePoint" />
            <mxPoint x="460" y="620" as="targetPoint" />
          </mxGeometry>
        </mxCell>
        <mxCell id="pcqIPcmbaqrJUMRT5sf_-187" value="" style="endArrow=none;html=1;rounded=0;" edge="1" parent="1">
          <mxGeometry width="50" height="50" relative="1" as="geometry">
            <mxPoint x="430" y="640" as="sourcePoint" />
            <mxPoint x="460" y="640" as="targetPoint" />
          </mxGeometry>
        </mxCell>
        <mxCell id="pcqIPcmbaqrJUMRT5sf_-188" value="" style="endArrow=none;html=1;rounded=0;" edge="1" parent="1">
          <mxGeometry width="50" height="50" relative="1" as="geometry">
            <mxPoint x="460" y="640" as="sourcePoint" />
            <mxPoint x="460" y="620" as="targetPoint" />
          </mxGeometry>
        </mxCell>
        <mxCell id="pcqIPcmbaqrJUMRT5sf_-189" value="" style="endArrow=none;html=1;rounded=0;" edge="1" parent="1">
          <mxGeometry width="50" height="50" relative="1" as="geometry">
            <mxPoint x="430" y="620" as="sourcePoint" />
            <mxPoint x="430" y="640" as="targetPoint" />
          </mxGeometry>
        </mxCell>
        <mxCell id="pcqIPcmbaqrJUMRT5sf_-190" value="" style="verticalAlign=top;align=left;spacingTop=8;spacingLeft=2;spacingRight=12;shape=cube;size=10;direction=south;fontStyle=4;html=1;whiteSpace=wrap;fillColor=#f7dbd9;strokeColor=#b85450;" vertex="1" parent="1">
          <mxGeometry x="225" y="680" width="190" height="150" as="geometry" />
        </mxCell>
        <mxCell id="pcqIPcmbaqrJUMRT5sf_-191" value="&amp;lt;&amp;lt;device&amp;gt;&amp;gt;&lt;div&gt;Web Browser&lt;/div&gt;" style="text;html=1;align=center;verticalAlign=middle;resizable=0;points=[];autosize=1;strokeColor=none;fillColor=none;" vertex="1" parent="1">
          <mxGeometry x="275" y="690" width="100" height="40" as="geometry" />
        </mxCell>
        <mxCell id="pcqIPcmbaqrJUMRT5sf_-192" value="&amp;lt;&amp;lt;artifact&amp;gt;&amp;gt;&lt;div&gt;index.php&lt;/div&gt;&lt;div&gt;Trang chủ&lt;/div&gt;" style="rounded=0;whiteSpace=wrap;html=1;fillColor=#caf9c8;strokeColor=#82b366;" vertex="1" parent="1">
          <mxGeometry x="265" y="740" width="120" height="60" as="geometry" />
        </mxCell>
        <mxCell id="pcqIPcmbaqrJUMRT5sf_-193" value="" style="html=1;whiteSpace=wrap;fillColor=#f9df90;strokeColor=#d6b656;" vertex="1" parent="1">
          <mxGeometry x="1040" y="600" width="320" height="260" as="geometry" />
        </mxCell>
        <mxCell id="pcqIPcmbaqrJUMRT5sf_-194" value="&amp;lt;&amp;lt;device&amp;gt;&amp;gt;&lt;div&gt;Web Server&lt;/div&gt;" style="text;html=1;align=center;verticalAlign=middle;resizable=0;points=[];autosize=1;strokeColor=none;fillColor=none;" vertex="1" parent="1">
          <mxGeometry x="1155" y="600" width="90" height="40" as="geometry" />
        </mxCell>
        <mxCell id="pcqIPcmbaqrJUMRT5sf_-195" value="" style="endArrow=none;html=1;rounded=0;entryX=1;entryY=0;entryDx=0;entryDy=0;" edge="1" parent="1">
          <mxGeometry width="50" height="50" relative="1" as="geometry">
            <mxPoint x="1350" y="630" as="sourcePoint" />
            <mxPoint x="1350" y="610" as="targetPoint" />
            <Array as="points" />
          </mxGeometry>
        </mxCell>
        <mxCell id="pcqIPcmbaqrJUMRT5sf_-196" value="" style="endArrow=none;html=1;rounded=0;exitX=1;exitY=1;exitDx=0;exitDy=0;" edge="1" parent="1">
          <mxGeometry width="50" height="50" relative="1" as="geometry">
            <mxPoint x="1340" y="640" as="sourcePoint" />
            <mxPoint x="1350" y="630" as="targetPoint" />
          </mxGeometry>
        </mxCell>
        <mxCell id="pcqIPcmbaqrJUMRT5sf_-197" value="" style="endArrow=none;html=1;rounded=0;exitX=1;exitY=1;exitDx=0;exitDy=0;" edge="1" parent="1">
          <mxGeometry width="50" height="50" relative="1" as="geometry">
            <mxPoint x="1340" y="620" as="sourcePoint" />
            <mxPoint x="1350" y="610" as="targetPoint" />
          </mxGeometry>
        </mxCell>
        <mxCell id="pcqIPcmbaqrJUMRT5sf_-198" value="" style="endArrow=none;html=1;rounded=0;" edge="1" parent="1">
          <mxGeometry width="50" height="50" relative="1" as="geometry">
            <mxPoint x="1320" y="610" as="sourcePoint" />
            <mxPoint x="1350" y="610" as="targetPoint" />
            <Array as="points" />
          </mxGeometry>
        </mxCell>
        <mxCell id="pcqIPcmbaqrJUMRT5sf_-199" value="" style="endArrow=none;html=1;rounded=0;entryX=0;entryY=0;entryDx=0;entryDy=0;" edge="1" parent="1">
          <mxGeometry width="50" height="50" relative="1" as="geometry">
            <mxPoint x="1320" y="610" as="sourcePoint" />
            <mxPoint x="1310" y="620" as="targetPoint" />
            <Array as="points" />
          </mxGeometry>
        </mxCell>
        <mxCell id="pcqIPcmbaqrJUMRT5sf_-200" value="" style="endArrow=none;html=1;rounded=0;" edge="1" parent="1">
          <mxGeometry width="50" height="50" relative="1" as="geometry">
            <mxPoint x="1310" y="620" as="sourcePoint" />
            <mxPoint x="1340" y="620" as="targetPoint" />
          </mxGeometry>
        </mxCell>
        <mxCell id="pcqIPcmbaqrJUMRT5sf_-201" value="" style="endArrow=none;html=1;rounded=0;" edge="1" parent="1">
          <mxGeometry width="50" height="50" relative="1" as="geometry">
            <mxPoint x="1310" y="640" as="sourcePoint" />
            <mxPoint x="1340" y="640" as="targetPoint" />
          </mxGeometry>
        </mxCell>
        <mxCell id="pcqIPcmbaqrJUMRT5sf_-202" value="" style="endArrow=none;html=1;rounded=0;" edge="1" parent="1">
          <mxGeometry width="50" height="50" relative="1" as="geometry">
            <mxPoint x="1340" y="640" as="sourcePoint" />
            <mxPoint x="1340" y="620" as="targetPoint" />
          </mxGeometry>
        </mxCell>
        <mxCell id="pcqIPcmbaqrJUMRT5sf_-203" value="" style="endArrow=none;html=1;rounded=0;" edge="1" parent="1">
          <mxGeometry width="50" height="50" relative="1" as="geometry">
            <mxPoint x="1310" y="620" as="sourcePoint" />
            <mxPoint x="1310" y="640" as="targetPoint" />
          </mxGeometry>
        </mxCell>
        <mxCell id="pcqIPcmbaqrJUMRT5sf_-204" value="" style="verticalAlign=top;align=left;spacingTop=8;spacingLeft=2;spacingRight=12;shape=cube;size=10;direction=south;fontStyle=4;html=1;whiteSpace=wrap;fillColor=#f7dbd9;strokeColor=#b85450;" vertex="1" parent="1">
          <mxGeometry x="1105" y="680" width="190" height="150" as="geometry" />
        </mxCell>
        <mxCell id="pcqIPcmbaqrJUMRT5sf_-205" value="&amp;lt;&amp;lt;device&amp;gt;&amp;gt;&lt;div&gt;Web Browser&lt;/div&gt;" style="text;html=1;align=center;verticalAlign=middle;resizable=0;points=[];autosize=1;strokeColor=none;fillColor=none;" vertex="1" parent="1">
          <mxGeometry x="1155" y="690" width="100" height="40" as="geometry" />
        </mxCell>
        <mxCell id="pcqIPcmbaqrJUMRT5sf_-206" value="&amp;lt;&amp;lt;artifact&amp;gt;&amp;gt;&lt;div&gt;product_update.php&lt;/div&gt;&lt;div&gt;Sửa sản phẩm&lt;/div&gt;" style="rounded=0;whiteSpace=wrap;html=1;fillColor=#caf9c8;strokeColor=#82b366;" vertex="1" parent="1">
          <mxGeometry x="1145" y="740" width="120" height="60" as="geometry" />
        </mxCell>
        <mxCell id="pcqIPcmbaqrJUMRT5sf_-207" value="" style="html=1;whiteSpace=wrap;fillColor=#f9df90;strokeColor=#d6b656;" vertex="1" parent="1">
          <mxGeometry x="1040" y="240" width="320" height="260" as="geometry" />
        </mxCell>
        <mxCell id="pcqIPcmbaqrJUMRT5sf_-208" value="&amp;lt;&amp;lt;device&amp;gt;&amp;gt;&lt;div&gt;Web Server&lt;/div&gt;" style="text;html=1;align=center;verticalAlign=middle;resizable=0;points=[];autosize=1;strokeColor=none;fillColor=none;" vertex="1" parent="1">
          <mxGeometry x="1155" y="240" width="90" height="40" as="geometry" />
        </mxCell>
        <mxCell id="pcqIPcmbaqrJUMRT5sf_-209" value="" style="endArrow=none;html=1;rounded=0;entryX=1;entryY=0;entryDx=0;entryDy=0;" edge="1" parent="1">
          <mxGeometry width="50" height="50" relative="1" as="geometry">
            <mxPoint x="1350" y="270" as="sourcePoint" />
            <mxPoint x="1350" y="250" as="targetPoint" />
            <Array as="points" />
          </mxGeometry>
        </mxCell>
        <mxCell id="pcqIPcmbaqrJUMRT5sf_-210" value="" style="endArrow=none;html=1;rounded=0;exitX=1;exitY=1;exitDx=0;exitDy=0;" edge="1" parent="1">
          <mxGeometry width="50" height="50" relative="1" as="geometry">
            <mxPoint x="1340" y="280" as="sourcePoint" />
            <mxPoint x="1350" y="270" as="targetPoint" />
          </mxGeometry>
        </mxCell>
        <mxCell id="pcqIPcmbaqrJUMRT5sf_-211" value="" style="endArrow=none;html=1;rounded=0;exitX=1;exitY=1;exitDx=0;exitDy=0;" edge="1" parent="1">
          <mxGeometry width="50" height="50" relative="1" as="geometry">
            <mxPoint x="1340" y="260" as="sourcePoint" />
            <mxPoint x="1350" y="250" as="targetPoint" />
          </mxGeometry>
        </mxCell>
        <mxCell id="pcqIPcmbaqrJUMRT5sf_-212" value="" style="endArrow=none;html=1;rounded=0;" edge="1" parent="1">
          <mxGeometry width="50" height="50" relative="1" as="geometry">
            <mxPoint x="1320" y="250" as="sourcePoint" />
            <mxPoint x="1350" y="250" as="targetPoint" />
            <Array as="points" />
          </mxGeometry>
        </mxCell>
        <mxCell id="pcqIPcmbaqrJUMRT5sf_-213" value="" style="endArrow=none;html=1;rounded=0;entryX=0;entryY=0;entryDx=0;entryDy=0;" edge="1" parent="1">
          <mxGeometry width="50" height="50" relative="1" as="geometry">
            <mxPoint x="1320" y="250" as="sourcePoint" />
            <mxPoint x="1310" y="260" as="targetPoint" />
            <Array as="points" />
          </mxGeometry>
        </mxCell>
        <mxCell id="pcqIPcmbaqrJUMRT5sf_-214" value="" style="endArrow=none;html=1;rounded=0;" edge="1" parent="1">
          <mxGeometry width="50" height="50" relative="1" as="geometry">
            <mxPoint x="1310" y="260" as="sourcePoint" />
            <mxPoint x="1340" y="260" as="targetPoint" />
          </mxGeometry>
        </mxCell>
        <mxCell id="pcqIPcmbaqrJUMRT5sf_-215" value="" style="endArrow=none;html=1;rounded=0;" edge="1" parent="1">
          <mxGeometry width="50" height="50" relative="1" as="geometry">
            <mxPoint x="1310" y="280" as="sourcePoint" />
            <mxPoint x="1340" y="280" as="targetPoint" />
          </mxGeometry>
        </mxCell>
        <mxCell id="pcqIPcmbaqrJUMRT5sf_-216" value="" style="endArrow=none;html=1;rounded=0;" edge="1" parent="1">
          <mxGeometry width="50" height="50" relative="1" as="geometry">
            <mxPoint x="1340" y="280" as="sourcePoint" />
            <mxPoint x="1340" y="260" as="targetPoint" />
          </mxGeometry>
        </mxCell>
        <mxCell id="pcqIPcmbaqrJUMRT5sf_-217" value="" style="endArrow=none;html=1;rounded=0;" edge="1" parent="1">
          <mxGeometry width="50" height="50" relative="1" as="geometry">
            <mxPoint x="1310" y="260" as="sourcePoint" />
            <mxPoint x="1310" y="280" as="targetPoint" />
          </mxGeometry>
        </mxCell>
        <mxCell id="pcqIPcmbaqrJUMRT5sf_-218" value="" style="verticalAlign=top;align=left;spacingTop=8;spacingLeft=2;spacingRight=12;shape=cube;size=10;direction=south;fontStyle=4;html=1;whiteSpace=wrap;fillColor=#f7dbd9;strokeColor=#b85450;" vertex="1" parent="1">
          <mxGeometry x="1105" y="320" width="190" height="150" as="geometry" />
        </mxCell>
        <mxCell id="pcqIPcmbaqrJUMRT5sf_-219" value="&amp;lt;&amp;lt;device&amp;gt;&amp;gt;&lt;div&gt;Web Browser&lt;/div&gt;" style="text;html=1;align=center;verticalAlign=middle;resizable=0;points=[];autosize=1;strokeColor=none;fillColor=none;" vertex="1" parent="1">
          <mxGeometry x="1155" y="330" width="100" height="40" as="geometry" />
        </mxCell>
        <mxCell id="pcqIPcmbaqrJUMRT5sf_-220" value="&amp;lt;&amp;lt;artifact&amp;gt;&amp;gt;&lt;div&gt;product_add.php&lt;/div&gt;&lt;div&gt;Thêm sản phẩm&lt;/div&gt;" style="rounded=0;whiteSpace=wrap;html=1;fillColor=#caf9c8;strokeColor=#82b366;" vertex="1" parent="1">
          <mxGeometry x="1145" y="380" width="120" height="60" as="geometry" />
        </mxCell>
        <mxCell id="pcqIPcmbaqrJUMRT5sf_-222" value="" style="endArrow=none;html=1;rounded=0;exitX=1;exitY=0.5;exitDx=0;exitDy=0;" edge="1" parent="1" source="pcqIPcmbaqrJUMRT5sf_-91" target="pcqIPcmbaqrJUMRT5sf_-193">
          <mxGeometry width="50" height="50" relative="1" as="geometry">
            <mxPoint x="1140" y="620" as="sourcePoint" />
            <mxPoint x="1190" y="570" as="targetPoint" />
          </mxGeometry>
        </mxCell>
        <mxCell id="pcqIPcmbaqrJUMRT5sf_-223" value="" style="html=1;whiteSpace=wrap;fillColor=#f9df90;strokeColor=#d6b656;" vertex="1" parent="1">
          <mxGeometry x="1040" y="950" width="320" height="260" as="geometry" />
        </mxCell>
        <mxCell id="pcqIPcmbaqrJUMRT5sf_-224" value="&amp;lt;&amp;lt;device&amp;gt;&amp;gt;&lt;div&gt;Web Service&lt;/div&gt;" style="text;html=1;align=center;verticalAlign=middle;resizable=0;points=[];autosize=1;strokeColor=none;fillColor=none;" vertex="1" parent="1">
          <mxGeometry x="1155" y="950" width="90" height="40" as="geometry" />
        </mxCell>
        <mxCell id="pcqIPcmbaqrJUMRT5sf_-225" value="" style="endArrow=none;html=1;rounded=0;entryX=1;entryY=0;entryDx=0;entryDy=0;" edge="1" parent="1">
          <mxGeometry width="50" height="50" relative="1" as="geometry">
            <mxPoint x="1350" y="980" as="sourcePoint" />
            <mxPoint x="1350" y="960" as="targetPoint" />
            <Array as="points" />
          </mxGeometry>
        </mxCell>
        <mxCell id="pcqIPcmbaqrJUMRT5sf_-226" value="" style="endArrow=none;html=1;rounded=0;exitX=1;exitY=1;exitDx=0;exitDy=0;" edge="1" parent="1">
          <mxGeometry width="50" height="50" relative="1" as="geometry">
            <mxPoint x="1340" y="990" as="sourcePoint" />
            <mxPoint x="1350" y="980" as="targetPoint" />
          </mxGeometry>
        </mxCell>
        <mxCell id="pcqIPcmbaqrJUMRT5sf_-227" value="" style="endArrow=none;html=1;rounded=0;exitX=1;exitY=1;exitDx=0;exitDy=0;" edge="1" parent="1">
          <mxGeometry width="50" height="50" relative="1" as="geometry">
            <mxPoint x="1340" y="970" as="sourcePoint" />
            <mxPoint x="1350" y="960" as="targetPoint" />
          </mxGeometry>
        </mxCell>
        <mxCell id="pcqIPcmbaqrJUMRT5sf_-228" value="" style="endArrow=none;html=1;rounded=0;" edge="1" parent="1">
          <mxGeometry width="50" height="50" relative="1" as="geometry">
            <mxPoint x="1320" y="960" as="sourcePoint" />
            <mxPoint x="1350" y="960" as="targetPoint" />
            <Array as="points" />
          </mxGeometry>
        </mxCell>
        <mxCell id="pcqIPcmbaqrJUMRT5sf_-229" value="" style="endArrow=none;html=1;rounded=0;entryX=0;entryY=0;entryDx=0;entryDy=0;" edge="1" parent="1">
          <mxGeometry width="50" height="50" relative="1" as="geometry">
            <mxPoint x="1320" y="960" as="sourcePoint" />
            <mxPoint x="1310" y="970" as="targetPoint" />
            <Array as="points" />
          </mxGeometry>
        </mxCell>
        <mxCell id="pcqIPcmbaqrJUMRT5sf_-230" value="" style="endArrow=none;html=1;rounded=0;" edge="1" parent="1">
          <mxGeometry width="50" height="50" relative="1" as="geometry">
            <mxPoint x="1310" y="970" as="sourcePoint" />
            <mxPoint x="1340" y="970" as="targetPoint" />
          </mxGeometry>
        </mxCell>
        <mxCell id="pcqIPcmbaqrJUMRT5sf_-231" value="" style="endArrow=none;html=1;rounded=0;" edge="1" parent="1">
          <mxGeometry width="50" height="50" relative="1" as="geometry">
            <mxPoint x="1310" y="990" as="sourcePoint" />
            <mxPoint x="1340" y="990" as="targetPoint" />
          </mxGeometry>
        </mxCell>
        <mxCell id="pcqIPcmbaqrJUMRT5sf_-232" value="" style="endArrow=none;html=1;rounded=0;" edge="1" parent="1">
          <mxGeometry width="50" height="50" relative="1" as="geometry">
            <mxPoint x="1340" y="990" as="sourcePoint" />
            <mxPoint x="1340" y="970" as="targetPoint" />
          </mxGeometry>
        </mxCell>
        <mxCell id="pcqIPcmbaqrJUMRT5sf_-233" value="" style="endArrow=none;html=1;rounded=0;" edge="1" parent="1">
          <mxGeometry width="50" height="50" relative="1" as="geometry">
            <mxPoint x="1310" y="970" as="sourcePoint" />
            <mxPoint x="1310" y="990" as="targetPoint" />
          </mxGeometry>
        </mxCell>
        <mxCell id="pcqIPcmbaqrJUMRT5sf_-234" value="" style="verticalAlign=top;align=left;spacingTop=8;spacingLeft=2;spacingRight=12;shape=cube;size=10;direction=south;fontStyle=4;html=1;whiteSpace=wrap;fillColor=#f7dbd9;strokeColor=#b85450;" vertex="1" parent="1">
          <mxGeometry x="1105" y="1030" width="190" height="150" as="geometry" />
        </mxCell>
        <mxCell id="pcqIPcmbaqrJUMRT5sf_-235" value="&amp;lt;&amp;lt;device&amp;gt;&amp;gt;&lt;div&gt;Web Browser&lt;/div&gt;" style="text;html=1;align=center;verticalAlign=middle;resizable=0;points=[];autosize=1;strokeColor=none;fillColor=none;" vertex="1" parent="1">
          <mxGeometry x="1155" y="1040" width="100" height="40" as="geometry" />
        </mxCell>
        <mxCell id="pcqIPcmbaqrJUMRT5sf_-236" value="&amp;lt;&amp;lt;artifact&amp;gt;&amp;gt;&lt;div&gt;product_deleta.php&lt;/div&gt;&lt;div&gt;Xóa sản phẩm&lt;/div&gt;" style="rounded=0;whiteSpace=wrap;html=1;fillColor=#caf9c8;strokeColor=#82b366;" vertex="1" parent="1">
          <mxGeometry x="1145" y="1090" width="120" height="60" as="geometry" />
        </mxCell>
        <mxCell id="pcqIPcmbaqrJUMRT5sf_-265" value="" style="endArrow=none;html=1;rounded=0;exitX=1;exitY=0.5;exitDx=0;exitDy=0;" edge="1" parent="1">
          <mxGeometry width="50" height="50" relative="1" as="geometry">
            <mxPoint x="1360" y="729.33" as="sourcePoint" />
            <mxPoint x="1480" y="729.33" as="targetPoint" />
          </mxGeometry>
        </mxCell>
        <mxCell id="pcqIPcmbaqrJUMRT5sf_-282" value="" style="html=1;whiteSpace=wrap;fillColor=#f9df90;strokeColor=#d6b656;" vertex="1" parent="1">
          <mxGeometry x="1520" y="1510" width="320" height="200" as="geometry" />
        </mxCell>
        <mxCell id="pcqIPcmbaqrJUMRT5sf_-283" value="&amp;lt;&amp;lt;artifact&amp;gt;&amp;gt;&lt;div&gt;Database&lt;/div&gt;" style="rounded=0;whiteSpace=wrap;html=1;fillColor=#b4e8b0;strokeColor=#82b366;" vertex="1" parent="1">
          <mxGeometry x="1620" y="1590" width="120" height="60" as="geometry" />
        </mxCell>
        <mxCell id="pcqIPcmbaqrJUMRT5sf_-284" value="&amp;lt;&amp;lt;device&amp;gt;&amp;gt;&lt;div&gt;&amp;nbsp;Database Server&lt;/div&gt;" style="text;html=1;align=center;verticalAlign=middle;resizable=0;points=[];autosize=1;strokeColor=none;fillColor=none;" vertex="1" parent="1">
          <mxGeometry x="1620" y="1510" width="120" height="40" as="geometry" />
        </mxCell>
        <mxCell id="pcqIPcmbaqrJUMRT5sf_-285" value="" style="endArrow=none;html=1;rounded=0;entryX=1;entryY=0;entryDx=0;entryDy=0;" edge="1" parent="1">
          <mxGeometry width="50" height="50" relative="1" as="geometry">
            <mxPoint x="1830" y="1540" as="sourcePoint" />
            <mxPoint x="1830" y="1520" as="targetPoint" />
            <Array as="points" />
          </mxGeometry>
        </mxCell>
        <mxCell id="pcqIPcmbaqrJUMRT5sf_-286" value="" style="endArrow=none;html=1;rounded=0;exitX=1;exitY=1;exitDx=0;exitDy=0;" edge="1" parent="1">
          <mxGeometry width="50" height="50" relative="1" as="geometry">
            <mxPoint x="1820" y="1550" as="sourcePoint" />
            <mxPoint x="1830" y="1540" as="targetPoint" />
          </mxGeometry>
        </mxCell>
        <mxCell id="pcqIPcmbaqrJUMRT5sf_-287" value="" style="endArrow=none;html=1;rounded=0;exitX=1;exitY=1;exitDx=0;exitDy=0;" edge="1" parent="1">
          <mxGeometry width="50" height="50" relative="1" as="geometry">
            <mxPoint x="1820" y="1530" as="sourcePoint" />
            <mxPoint x="1830" y="1520" as="targetPoint" />
          </mxGeometry>
        </mxCell>
        <mxCell id="pcqIPcmbaqrJUMRT5sf_-288" value="" style="endArrow=none;html=1;rounded=0;" edge="1" parent="1">
          <mxGeometry width="50" height="50" relative="1" as="geometry">
            <mxPoint x="1800" y="1520" as="sourcePoint" />
            <mxPoint x="1830" y="1520" as="targetPoint" />
            <Array as="points" />
          </mxGeometry>
        </mxCell>
        <mxCell id="pcqIPcmbaqrJUMRT5sf_-289" value="" style="endArrow=none;html=1;rounded=0;entryX=0;entryY=0;entryDx=0;entryDy=0;" edge="1" parent="1">
          <mxGeometry width="50" height="50" relative="1" as="geometry">
            <mxPoint x="1800" y="1520" as="sourcePoint" />
            <mxPoint x="1790" y="1530" as="targetPoint" />
            <Array as="points" />
          </mxGeometry>
        </mxCell>
        <mxCell id="pcqIPcmbaqrJUMRT5sf_-290" value="" style="endArrow=none;html=1;rounded=0;" edge="1" parent="1">
          <mxGeometry width="50" height="50" relative="1" as="geometry">
            <mxPoint x="1790" y="1530" as="sourcePoint" />
            <mxPoint x="1820" y="1530" as="targetPoint" />
          </mxGeometry>
        </mxCell>
        <mxCell id="pcqIPcmbaqrJUMRT5sf_-291" value="" style="endArrow=none;html=1;rounded=0;" edge="1" parent="1">
          <mxGeometry width="50" height="50" relative="1" as="geometry">
            <mxPoint x="1790" y="1550" as="sourcePoint" />
            <mxPoint x="1820" y="1550" as="targetPoint" />
          </mxGeometry>
        </mxCell>
        <mxCell id="pcqIPcmbaqrJUMRT5sf_-292" value="" style="endArrow=none;html=1;rounded=0;" edge="1" parent="1">
          <mxGeometry width="50" height="50" relative="1" as="geometry">
            <mxPoint x="1820" y="1550" as="sourcePoint" />
            <mxPoint x="1820" y="1530" as="targetPoint" />
          </mxGeometry>
        </mxCell>
        <mxCell id="pcqIPcmbaqrJUMRT5sf_-293" value="" style="endArrow=none;html=1;rounded=0;" edge="1" parent="1">
          <mxGeometry width="50" height="50" relative="1" as="geometry">
            <mxPoint x="1790" y="1530" as="sourcePoint" />
            <mxPoint x="1790" y="1550" as="targetPoint" />
          </mxGeometry>
        </mxCell>
        <mxCell id="pcqIPcmbaqrJUMRT5sf_-391" style="edgeStyle=orthogonalEdgeStyle;rounded=0;orthogonalLoop=1;jettySize=auto;html=1;entryX=0;entryY=0.5;entryDx=0;entryDy=0;" edge="1" parent="1" source="pcqIPcmbaqrJUMRT5sf_-297" target="pcqIPcmbaqrJUMRT5sf_-311">
          <mxGeometry relative="1" as="geometry" />
        </mxCell>
        <mxCell id="pcqIPcmbaqrJUMRT5sf_-297" value="" style="html=1;whiteSpace=wrap;fillColor=#f9df90;strokeColor=#d6b656;" vertex="1" parent="1">
          <mxGeometry x="160" y="1440" width="320" height="340" as="geometry" />
        </mxCell>
        <mxCell id="pcqIPcmbaqrJUMRT5sf_-298" value="&amp;lt;&amp;lt;device&amp;gt;&amp;gt;&lt;div&gt;Web Server&lt;/div&gt;" style="text;html=1;align=center;verticalAlign=middle;resizable=0;points=[];autosize=1;strokeColor=none;fillColor=none;" vertex="1" parent="1">
          <mxGeometry x="275" y="1440" width="90" height="40" as="geometry" />
        </mxCell>
        <mxCell id="pcqIPcmbaqrJUMRT5sf_-299" value="" style="endArrow=none;html=1;rounded=0;entryX=1;entryY=0;entryDx=0;entryDy=0;" edge="1" parent="1">
          <mxGeometry width="50" height="50" relative="1" as="geometry">
            <mxPoint x="470" y="1470" as="sourcePoint" />
            <mxPoint x="470" y="1450" as="targetPoint" />
            <Array as="points" />
          </mxGeometry>
        </mxCell>
        <mxCell id="pcqIPcmbaqrJUMRT5sf_-300" value="" style="endArrow=none;html=1;rounded=0;exitX=1;exitY=1;exitDx=0;exitDy=0;" edge="1" parent="1">
          <mxGeometry width="50" height="50" relative="1" as="geometry">
            <mxPoint x="460" y="1480" as="sourcePoint" />
            <mxPoint x="470" y="1470" as="targetPoint" />
          </mxGeometry>
        </mxCell>
        <mxCell id="pcqIPcmbaqrJUMRT5sf_-301" value="" style="endArrow=none;html=1;rounded=0;exitX=1;exitY=1;exitDx=0;exitDy=0;" edge="1" parent="1">
          <mxGeometry width="50" height="50" relative="1" as="geometry">
            <mxPoint x="460" y="1460" as="sourcePoint" />
            <mxPoint x="470" y="1450" as="targetPoint" />
          </mxGeometry>
        </mxCell>
        <mxCell id="pcqIPcmbaqrJUMRT5sf_-302" value="" style="endArrow=none;html=1;rounded=0;" edge="1" parent="1">
          <mxGeometry width="50" height="50" relative="1" as="geometry">
            <mxPoint x="440" y="1450" as="sourcePoint" />
            <mxPoint x="470" y="1450" as="targetPoint" />
            <Array as="points" />
          </mxGeometry>
        </mxCell>
        <mxCell id="pcqIPcmbaqrJUMRT5sf_-303" value="" style="endArrow=none;html=1;rounded=0;entryX=0;entryY=0;entryDx=0;entryDy=0;" edge="1" parent="1">
          <mxGeometry width="50" height="50" relative="1" as="geometry">
            <mxPoint x="440" y="1450" as="sourcePoint" />
            <mxPoint x="430" y="1460" as="targetPoint" />
            <Array as="points" />
          </mxGeometry>
        </mxCell>
        <mxCell id="pcqIPcmbaqrJUMRT5sf_-304" value="" style="endArrow=none;html=1;rounded=0;" edge="1" parent="1">
          <mxGeometry width="50" height="50" relative="1" as="geometry">
            <mxPoint x="430" y="1460" as="sourcePoint" />
            <mxPoint x="460" y="1460" as="targetPoint" />
          </mxGeometry>
        </mxCell>
        <mxCell id="pcqIPcmbaqrJUMRT5sf_-305" value="" style="endArrow=none;html=1;rounded=0;" edge="1" parent="1">
          <mxGeometry width="50" height="50" relative="1" as="geometry">
            <mxPoint x="430" y="1480" as="sourcePoint" />
            <mxPoint x="460" y="1480" as="targetPoint" />
          </mxGeometry>
        </mxCell>
        <mxCell id="pcqIPcmbaqrJUMRT5sf_-306" value="" style="endArrow=none;html=1;rounded=0;" edge="1" parent="1">
          <mxGeometry width="50" height="50" relative="1" as="geometry">
            <mxPoint x="460" y="1480" as="sourcePoint" />
            <mxPoint x="460" y="1460" as="targetPoint" />
          </mxGeometry>
        </mxCell>
        <mxCell id="pcqIPcmbaqrJUMRT5sf_-307" value="" style="endArrow=none;html=1;rounded=0;" edge="1" parent="1">
          <mxGeometry width="50" height="50" relative="1" as="geometry">
            <mxPoint x="430" y="1460" as="sourcePoint" />
            <mxPoint x="430" y="1480" as="targetPoint" />
          </mxGeometry>
        </mxCell>
        <mxCell id="pcqIPcmbaqrJUMRT5sf_-308" value="" style="verticalAlign=top;align=left;spacingTop=8;spacingLeft=2;spacingRight=12;shape=cube;size=10;direction=south;fontStyle=4;html=1;whiteSpace=wrap;fillColor=#f7dbd9;strokeColor=#b85450;" vertex="1" parent="1">
          <mxGeometry x="225" y="1520" width="190" height="150" as="geometry" />
        </mxCell>
        <mxCell id="pcqIPcmbaqrJUMRT5sf_-309" value="&amp;lt;&amp;lt;device&amp;gt;&amp;gt;&lt;div&gt;Web Browser&lt;/div&gt;" style="text;html=1;align=center;verticalAlign=middle;resizable=0;points=[];autosize=1;strokeColor=none;fillColor=none;" vertex="1" parent="1">
          <mxGeometry x="275" y="1530" width="100" height="40" as="geometry" />
        </mxCell>
        <mxCell id="pcqIPcmbaqrJUMRT5sf_-310" value="&amp;lt;&amp;lt;artifact&amp;gt;&amp;gt;&lt;div&gt;index.php/ list_product.php/ product_detail.php&lt;/div&gt;&lt;div&gt;Trang chủ/ Cửa hàng/ Chi tiết sản phẩm&lt;/div&gt;" style="rounded=0;whiteSpace=wrap;html=1;fillColor=#caf9c8;strokeColor=#82b366;" vertex="1" parent="1">
          <mxGeometry x="240" y="1580" width="150" height="70" as="geometry" />
        </mxCell>
        <mxCell id="pcqIPcmbaqrJUMRT5sf_-387" style="edgeStyle=orthogonalEdgeStyle;rounded=0;orthogonalLoop=1;jettySize=auto;html=1;entryX=0;entryY=0.5;entryDx=0;entryDy=0;" edge="1" parent="1" source="pcqIPcmbaqrJUMRT5sf_-311" target="pcqIPcmbaqrJUMRT5sf_-370">
          <mxGeometry relative="1" as="geometry" />
        </mxCell>
        <mxCell id="pcqIPcmbaqrJUMRT5sf_-311" value="" style="html=1;whiteSpace=wrap;fillColor=#f9df90;strokeColor=#d6b656;" vertex="1" parent="1">
          <mxGeometry x="640" y="1440" width="320" height="340" as="geometry" />
        </mxCell>
        <mxCell id="pcqIPcmbaqrJUMRT5sf_-312" value="&amp;lt;&amp;lt;device&amp;gt;&amp;gt;&lt;div&gt;Web Server&lt;/div&gt;" style="text;html=1;align=center;verticalAlign=middle;resizable=0;points=[];autosize=1;strokeColor=none;fillColor=none;" vertex="1" parent="1">
          <mxGeometry x="755" y="1440" width="90" height="40" as="geometry" />
        </mxCell>
        <mxCell id="pcqIPcmbaqrJUMRT5sf_-313" value="" style="endArrow=none;html=1;rounded=0;entryX=1;entryY=0;entryDx=0;entryDy=0;" edge="1" parent="1">
          <mxGeometry width="50" height="50" relative="1" as="geometry">
            <mxPoint x="950" y="1470" as="sourcePoint" />
            <mxPoint x="950" y="1450" as="targetPoint" />
            <Array as="points" />
          </mxGeometry>
        </mxCell>
        <mxCell id="pcqIPcmbaqrJUMRT5sf_-314" value="" style="endArrow=none;html=1;rounded=0;exitX=1;exitY=1;exitDx=0;exitDy=0;" edge="1" parent="1">
          <mxGeometry width="50" height="50" relative="1" as="geometry">
            <mxPoint x="940" y="1480" as="sourcePoint" />
            <mxPoint x="950" y="1470" as="targetPoint" />
          </mxGeometry>
        </mxCell>
        <mxCell id="pcqIPcmbaqrJUMRT5sf_-315" value="" style="endArrow=none;html=1;rounded=0;exitX=1;exitY=1;exitDx=0;exitDy=0;" edge="1" parent="1">
          <mxGeometry width="50" height="50" relative="1" as="geometry">
            <mxPoint x="940" y="1460" as="sourcePoint" />
            <mxPoint x="950" y="1450" as="targetPoint" />
          </mxGeometry>
        </mxCell>
        <mxCell id="pcqIPcmbaqrJUMRT5sf_-316" value="" style="endArrow=none;html=1;rounded=0;" edge="1" parent="1">
          <mxGeometry width="50" height="50" relative="1" as="geometry">
            <mxPoint x="920" y="1450" as="sourcePoint" />
            <mxPoint x="950" y="1450" as="targetPoint" />
            <Array as="points" />
          </mxGeometry>
        </mxCell>
        <mxCell id="pcqIPcmbaqrJUMRT5sf_-317" value="" style="endArrow=none;html=1;rounded=0;entryX=0;entryY=0;entryDx=0;entryDy=0;" edge="1" parent="1">
          <mxGeometry width="50" height="50" relative="1" as="geometry">
            <mxPoint x="920" y="1450" as="sourcePoint" />
            <mxPoint x="910" y="1460" as="targetPoint" />
            <Array as="points" />
          </mxGeometry>
        </mxCell>
        <mxCell id="pcqIPcmbaqrJUMRT5sf_-318" value="" style="endArrow=none;html=1;rounded=0;" edge="1" parent="1">
          <mxGeometry width="50" height="50" relative="1" as="geometry">
            <mxPoint x="910" y="1460" as="sourcePoint" />
            <mxPoint x="940" y="1460" as="targetPoint" />
          </mxGeometry>
        </mxCell>
        <mxCell id="pcqIPcmbaqrJUMRT5sf_-319" value="" style="endArrow=none;html=1;rounded=0;" edge="1" parent="1">
          <mxGeometry width="50" height="50" relative="1" as="geometry">
            <mxPoint x="910" y="1480" as="sourcePoint" />
            <mxPoint x="940" y="1480" as="targetPoint" />
          </mxGeometry>
        </mxCell>
        <mxCell id="pcqIPcmbaqrJUMRT5sf_-320" value="" style="endArrow=none;html=1;rounded=0;" edge="1" parent="1">
          <mxGeometry width="50" height="50" relative="1" as="geometry">
            <mxPoint x="940" y="1480" as="sourcePoint" />
            <mxPoint x="940" y="1460" as="targetPoint" />
          </mxGeometry>
        </mxCell>
        <mxCell id="pcqIPcmbaqrJUMRT5sf_-321" value="" style="endArrow=none;html=1;rounded=0;" edge="1" parent="1">
          <mxGeometry width="50" height="50" relative="1" as="geometry">
            <mxPoint x="910" y="1460" as="sourcePoint" />
            <mxPoint x="910" y="1480" as="targetPoint" />
          </mxGeometry>
        </mxCell>
        <mxCell id="pcqIPcmbaqrJUMRT5sf_-322" value="" style="verticalAlign=top;align=left;spacingTop=8;spacingLeft=2;spacingRight=12;shape=cube;size=10;direction=south;fontStyle=4;html=1;whiteSpace=wrap;fillColor=#f7dbd9;strokeColor=#b85450;" vertex="1" parent="1">
          <mxGeometry x="705" y="1520" width="190" height="150" as="geometry" />
        </mxCell>
        <mxCell id="pcqIPcmbaqrJUMRT5sf_-323" value="&amp;lt;&amp;lt;device&amp;gt;&amp;gt;&lt;div&gt;Web Browser&lt;/div&gt;" style="text;html=1;align=center;verticalAlign=middle;resizable=0;points=[];autosize=1;strokeColor=none;fillColor=none;" vertex="1" parent="1">
          <mxGeometry x="755" y="1530" width="100" height="40" as="geometry" />
        </mxCell>
        <mxCell id="pcqIPcmbaqrJUMRT5sf_-324" value="&amp;lt;&amp;lt;artifact&amp;gt;&amp;gt;&lt;div&gt;view_cart.php&lt;/div&gt;&lt;div&gt;Giỏ hàng&lt;/div&gt;" style="rounded=0;whiteSpace=wrap;html=1;fillColor=#caf9c8;strokeColor=#82b366;" vertex="1" parent="1">
          <mxGeometry x="745" y="1580" width="120" height="60" as="geometry" />
        </mxCell>
        <mxCell id="pcqIPcmbaqrJUMRT5sf_-357" value="&amp;lt;&amp;lt;artifact&amp;gt;&amp;gt;&lt;div&gt;cart.php&lt;/div&gt;" style="rounded=0;whiteSpace=wrap;html=1;fillColor=#b4e8b0;strokeColor=#82b366;" vertex="1" parent="1">
          <mxGeometry x="260" y="1700" width="120" height="60" as="geometry" />
        </mxCell>
        <mxCell id="pcqIPcmbaqrJUMRT5sf_-386" style="edgeStyle=orthogonalEdgeStyle;rounded=0;orthogonalLoop=1;jettySize=auto;html=1;entryX=0;entryY=0.5;entryDx=0;entryDy=0;" edge="1" parent="1" source="pcqIPcmbaqrJUMRT5sf_-370" target="pcqIPcmbaqrJUMRT5sf_-282">
          <mxGeometry relative="1" as="geometry" />
        </mxCell>
        <mxCell id="pcqIPcmbaqrJUMRT5sf_-370" value="" style="html=1;whiteSpace=wrap;fillColor=#f9df90;strokeColor=#d6b656;" vertex="1" parent="1">
          <mxGeometry x="1080" y="1480" width="320" height="260" as="geometry" />
        </mxCell>
        <mxCell id="pcqIPcmbaqrJUMRT5sf_-371" value="&amp;lt;&amp;lt;device&amp;gt;&amp;gt;&lt;div&gt;Web Server&lt;/div&gt;" style="text;html=1;align=center;verticalAlign=middle;resizable=0;points=[];autosize=1;strokeColor=none;fillColor=none;" vertex="1" parent="1">
          <mxGeometry x="1195" y="1480" width="90" height="40" as="geometry" />
        </mxCell>
        <mxCell id="pcqIPcmbaqrJUMRT5sf_-372" value="" style="endArrow=none;html=1;rounded=0;entryX=1;entryY=0;entryDx=0;entryDy=0;" edge="1" parent="1">
          <mxGeometry width="50" height="50" relative="1" as="geometry">
            <mxPoint x="1390" y="1510" as="sourcePoint" />
            <mxPoint x="1390" y="1490" as="targetPoint" />
            <Array as="points" />
          </mxGeometry>
        </mxCell>
        <mxCell id="pcqIPcmbaqrJUMRT5sf_-373" value="" style="endArrow=none;html=1;rounded=0;exitX=1;exitY=1;exitDx=0;exitDy=0;" edge="1" parent="1">
          <mxGeometry width="50" height="50" relative="1" as="geometry">
            <mxPoint x="1380" y="1520" as="sourcePoint" />
            <mxPoint x="1390" y="1510" as="targetPoint" />
          </mxGeometry>
        </mxCell>
        <mxCell id="pcqIPcmbaqrJUMRT5sf_-374" value="" style="endArrow=none;html=1;rounded=0;exitX=1;exitY=1;exitDx=0;exitDy=0;" edge="1" parent="1">
          <mxGeometry width="50" height="50" relative="1" as="geometry">
            <mxPoint x="1380" y="1500" as="sourcePoint" />
            <mxPoint x="1390" y="1490" as="targetPoint" />
          </mxGeometry>
        </mxCell>
        <mxCell id="pcqIPcmbaqrJUMRT5sf_-375" value="" style="endArrow=none;html=1;rounded=0;" edge="1" parent="1">
          <mxGeometry width="50" height="50" relative="1" as="geometry">
            <mxPoint x="1360" y="1490" as="sourcePoint" />
            <mxPoint x="1390" y="1490" as="targetPoint" />
            <Array as="points" />
          </mxGeometry>
        </mxCell>
        <mxCell id="pcqIPcmbaqrJUMRT5sf_-376" value="" style="endArrow=none;html=1;rounded=0;entryX=0;entryY=0;entryDx=0;entryDy=0;" edge="1" parent="1">
          <mxGeometry width="50" height="50" relative="1" as="geometry">
            <mxPoint x="1360" y="1490" as="sourcePoint" />
            <mxPoint x="1350" y="1500" as="targetPoint" />
            <Array as="points" />
          </mxGeometry>
        </mxCell>
        <mxCell id="pcqIPcmbaqrJUMRT5sf_-377" value="" style="endArrow=none;html=1;rounded=0;" edge="1" parent="1">
          <mxGeometry width="50" height="50" relative="1" as="geometry">
            <mxPoint x="1350" y="1500" as="sourcePoint" />
            <mxPoint x="1380" y="1500" as="targetPoint" />
          </mxGeometry>
        </mxCell>
        <mxCell id="pcqIPcmbaqrJUMRT5sf_-378" value="" style="endArrow=none;html=1;rounded=0;" edge="1" parent="1">
          <mxGeometry width="50" height="50" relative="1" as="geometry">
            <mxPoint x="1350" y="1520" as="sourcePoint" />
            <mxPoint x="1380" y="1520" as="targetPoint" />
          </mxGeometry>
        </mxCell>
        <mxCell id="pcqIPcmbaqrJUMRT5sf_-379" value="" style="endArrow=none;html=1;rounded=0;" edge="1" parent="1">
          <mxGeometry width="50" height="50" relative="1" as="geometry">
            <mxPoint x="1380" y="1520" as="sourcePoint" />
            <mxPoint x="1380" y="1500" as="targetPoint" />
          </mxGeometry>
        </mxCell>
        <mxCell id="pcqIPcmbaqrJUMRT5sf_-380" value="" style="endArrow=none;html=1;rounded=0;" edge="1" parent="1">
          <mxGeometry width="50" height="50" relative="1" as="geometry">
            <mxPoint x="1350" y="1500" as="sourcePoint" />
            <mxPoint x="1350" y="1520" as="targetPoint" />
          </mxGeometry>
        </mxCell>
        <mxCell id="pcqIPcmbaqrJUMRT5sf_-381" value="" style="verticalAlign=top;align=left;spacingTop=8;spacingLeft=2;spacingRight=12;shape=cube;size=10;direction=south;fontStyle=4;html=1;whiteSpace=wrap;fillColor=#f7dbd9;strokeColor=#b85450;" vertex="1" parent="1">
          <mxGeometry x="1145" y="1560" width="190" height="150" as="geometry" />
        </mxCell>
        <mxCell id="pcqIPcmbaqrJUMRT5sf_-382" value="&amp;lt;&amp;lt;device&amp;gt;&amp;gt;&lt;div&gt;Web Browser&lt;/div&gt;" style="text;html=1;align=center;verticalAlign=middle;resizable=0;points=[];autosize=1;strokeColor=none;fillColor=none;" vertex="1" parent="1">
          <mxGeometry x="1195" y="1570" width="100" height="40" as="geometry" />
        </mxCell>
        <mxCell id="pcqIPcmbaqrJUMRT5sf_-383" value="&amp;lt;&amp;lt;artifact&amp;gt;&amp;gt;&lt;div&gt;checkout.php&lt;/div&gt;&lt;div&gt;Thanh toán&lt;/div&gt;" style="rounded=0;whiteSpace=wrap;html=1;fillColor=#caf9c8;strokeColor=#82b366;" vertex="1" parent="1">
          <mxGeometry x="1185" y="1620" width="120" height="60" as="geometry" />
        </mxCell>
        <mxCell id="pcqIPcmbaqrJUMRT5sf_-390" value="&amp;lt;&amp;lt;artifact&amp;gt;&amp;gt;&lt;div&gt;cart.php&lt;/div&gt;" style="rounded=0;whiteSpace=wrap;html=1;fillColor=#b4e8b0;strokeColor=#82b366;" vertex="1" parent="1">
          <mxGeometry x="740" y="1700" width="120" height="60" as="geometry" />
        </mxCell>
      </root>
    </mxGraphModel>
  </diagram>
</mxfile>
